<svg xmlns="http://www.w3.org/2000/svg" viewBox="0 0 180 180" width="180" height="180">
  <rect width="180" height="180" fill="#0d1117"/>
  <!-- Red row -->
  <rect x="28"  y="16"  width="22" height="22" rx="6" fill="#ce242b" opacity="0.9"/>
  <rect x="62"  y="16"  width="22" height="22" rx="6" fill="#30363d"/>
  <rect x="96"  y="16"  width="22" height="22" rx="6" fill="#ce242b" opacity="0.5"/>
  <rect x="130" y="16"  width="22" height="22" rx="6" fill="#30363d"/>
  <!-- Gold row -->
  <rect x="28"  y="58"  width="22" height="22" rx="6" fill="#30363d"/>
  <rect x="62"  y="58"  width="22" height="22" rx="6" fill="#d4a723" opacity="0.7"/>
  <rect x="96"  y="58"  width="22" height="22" rx="6" fill="#30363d"/>
  <rect x="130" y="58"  width="22" height="22" rx="6" fill="#d4a723" opacity="0.45"/>
  <!-- Blue row -->
  <rect x="28"  y="100" width="22" height="22" rx="6" fill="#0075b2" opacity="0.55"/>
  <rect x="62"  y="100" width="22" height="22" rx="6" fill="#30363d"/>
  <rect x="96"  y="100" width="22" height="22" rx="6" fill="#0075b2" opacity="0.9"/>
  <rect x="130" y="100" width="22" height="22" rx="6" fill="#30363d"/>
  <!-- Green row -->
  <rect x="28"  y="142" width="22" height="22" rx="6" fill="#30363d"/>
  <rect x="62"  y="142" width="22" height="22" rx="6" fill="#009d4b" opacity="0.5"/>
  <rect x="96"  y="142" width="22" height="22" rx="6" fill="#30363d"/>
  <rect x="130" y="142" width="22" height="22" rx="6" fill="#009d4b" opacity="0.75"/>
</svg>
